<?xml version="1.0" encoding="UTF-8" standalone="no"?>
<!DOCTYPE svg PUBLIC "-//W3C//DTD SVG 1.1//EN" "http://www.w3.org/Graphics/SVG/1.1/DTD/svg11.dtd">
<svg xmlns="http://www.w3.org/2000/svg" xmlns:xlink="http://www.w3.org/1999/xlink" version="1.1" width="375pt" height="375pt" viewBox="0 0 375 375">
<g enable-background="new">
<clipPath id="cp0">
<path transform="matrix(.24,0,0,.24,0,0)" d="M 0 0 L 1562.5 0 L 1562.5 1593.75 L 0 1593.75 Z " fill-rule="evenodd"/>
</clipPath>
<g clip-path="url(#cp0)">
<path transform="matrix(.75,0,0,.75,0,0)" d="M 0 0 L 500 0 L 500 510 L 0 510 Z " fill="#ffffff"/>
<path transform="matrix(.75,0,0,.75,0,0)" d="M 0 0 L 500 0 L 500 500 L 0 500 Z " fill="#ffffff"/>
</g>
<clipPath id="cp1">
<path transform="matrix(.24,0,0,.24,0,0)" d="M 0 0 L 1562.5 0 L 1562.5 1562.5 L 0 1562.5 Z " fill-rule="evenodd"/>
</clipPath>
<g clip-path="url(#cp1)">
<path transform="matrix(.75,0,0,.75,0,0)" d="M 0 0 L 500 0 L 500 500 L 0 500 Z " fill="#ffffff"/>
</g>
<clipPath id="cp2">
<path transform="matrix(.24,0,0,.24,0,0)" d="M 0 0 L 1562.5 0 L 1562.5 1562.5 L 0 1562.5 Z " fill-rule="evenodd"/>
</clipPath>
<g clip-path="url(#cp2)">
<g id="Layer-1" data-name="P">
</g>
<text fill="#ff0000" xml:space="preserve" transform="matrix(.75 0 0 .75 6.5384008 128.4536)" font-size="50.21" font-family="RoxboroughCF" font-weight="bold"><tspan y="44" x="10.296875 46.2433 87.86267 129.18082 149.61449 185.71152 200.17102 241.68999 278.89149 322.01695 365.1424 409.97477">SUNIL REDDY </tspan></text>
<g id="Layer-1" data-name="P">
</g>
<text fill="#00ffff" xml:space="preserve" transform="matrix(.75 0 0 .75 5.2030589 127.99381)" font-size="50.21" font-family="RoxboroughCF" font-weight="bold"><tspan y="44" x="10.296875 46.2433 87.86267 129.18082 149.61449 185.71152 200.17102 241.68999 278.89149 322.01695 365.1424 409.97477">SUNIL REDDY </tspan></text>
<g id="Layer-1" data-name="P">
</g>
<text fill="#03989e" xml:space="preserve" transform="matrix(.75 0 0 .75 5.87073 128.22371)" font-size="50.21" font-family="RoxboroughCF" font-weight="bold"><tspan y="44" x="10.296875 46.2433 87.86267 129.18082 149.61449 185.71152 200.17102 241.68999 278.89149 322.01695 365.1424 409.97477">SUNIL REDDY </tspan></text>
<g id="Layer-1" data-name="P">
</g>
<text fill="#ff0000" xml:space="preserve" transform="matrix(.75 0 0 .75 6.5384008 128.4536)" font-size="50.21" font-family="RoxboroughCF" font-weight="bold" font-style="italic"><tspan y="44" x="424.42189">&#x0026;</tspan></text>
<g id="Layer-1" data-name="P">
</g>
<text fill="#00ffff" xml:space="preserve" transform="matrix(.75 0 0 .75 5.2030589 127.99381)" font-size="50.21" font-family="RoxboroughCF" font-weight="bold" font-style="italic"><tspan y="44" x="424.42189">&#x0026;</tspan></text>
<g id="Layer-1" data-name="P">
</g>
<text fill="#03989e" xml:space="preserve" transform="matrix(.75 0 0 .75 5.87073 128.22371)" font-size="50.21" font-family="RoxboroughCF" font-weight="bold" font-style="italic"><tspan y="44" x="424.42189">&#x0026;</tspan></text>
<g id="Layer-1" data-name="P">
</g>
<text fill="#ff0000" xml:space="preserve" transform="matrix(.75 0 0 .75 6.5384008 128.4536)" font-size="50.21" font-family="RoxboroughCF" font-weight="bold"><tspan y="93" x="50.71875 96.8062 132.75263 168.69905 216.34279 258.5144 278.94807 325.03553 364.99818 402.19966">ASSOCIATES</tspan></text>
<g id="Layer-1" data-name="P">
</g>
<text fill="#00ffff" xml:space="preserve" transform="matrix(.75 0 0 .75 5.2030589 127.99381)" font-size="50.21" font-family="RoxboroughCF" font-weight="bold"><tspan y="93" x="50.71875 96.8062 132.75263 168.69905 216.34279 258.5144 278.94807 325.03553 364.99818 402.19966">ASSOCIATES</tspan></text>
<g id="Layer-1" data-name="P">
</g>
<text fill="#03989e" xml:space="preserve" transform="matrix(.75 0 0 .75 5.87073 128.22371)" font-size="50.21" font-family="RoxboroughCF" font-weight="bold"><tspan y="93" x="50.71875 96.8062 132.75263 168.69905 216.34279 258.5144 278.94807 325.03553 364.99818 402.19966">ASSOCIATES</tspan></text>
</g>
<clipPath id="cp3">
<path transform="matrix(.24,0,0,.24,0,0)" d="M 0 462.5936 L 1562.5 462.5936 L 1562.5 478.69685 L 0 478.69685 Z " fill-rule="evenodd"/>
</clipPath>
<g clip-path="url(#cp3)">
<path transform="matrix(.9661948,0,0,.9661948,-5.738961,111.02246)" d="M 0 0 L 400 0 L 400 4 L 0 4 Z " fill="#ffbd4a"/>
</g>
<clipPath id="cp4">
<path transform="matrix(.24,0,0,.24,0,0)" d="M 0 911.0245 L 1562.5 911.0245 L 1562.5 927.12777 L 0 927.12777 Z " fill-rule="evenodd"/>
</clipPath>
<g clip-path="url(#cp4)">
<path transform="matrix(.9661948,0,0,.9661948,-5.738961,218.64588)" d="M 0 0 L 400 0 L 400 4 L 0 4 Z " fill="#ffbd4a"/>
</g>
</g>
</svg>
