<?xml version="1.0" standalone="no"?>
<!DOCTYPE svg PUBLIC "-//W3C//DTD SVG 20010904//EN"
 "http://www.w3.org/TR/2001/REC-SVG-20010904/DTD/svg10.dtd">
<svg version="1.0" xmlns="http://www.w3.org/2000/svg"
 width="360.000000pt" height="253.000000pt" viewBox="0 0 360.000000 253.000000"
 preserveAspectRatio="xMidYMid meet">
<metadata>
Created by potrace 1.16, written by Peter Selinger 2001-2019
</metadata>
<g transform="translate(0.000000,253.000000) scale(0.100000,-0.100000)"
fill="#000000" stroke="none">
<path d="M1516 1899 c-91 -22 -146 -86 -146 -173 0 -96 30 -132 152 -182 93
-39 114 -59 104 -100 -11 -42 -48 -57 -124 -51 -37 4 -79 9 -94 13 -25 6 -27
3 -38 -37 -6 -24 -13 -51 -16 -60 -7 -24 74 -44 181 -44 74 0 98 4 138 24 96
47 135 165 85 261 -23 46 -48 62 -188 125 -40 18 -45 24 -48 57 -3 29 1 39 19
48 21 12 111 9 154 -4 16 -6 25 3 47 44 l26 51 -22 9 c-33 12 -135 30 -165 29
-14 -1 -44 -5 -65 -10z"/>
<path d="M1935 1901 l-60 -6 0 -310 0 -310 73 -3 72 -3 0 148 0 148 83 -145
82 -145 79 -3 c93 -3 93 -15 -4 143 l-69 114 27 20 c59 41 89 154 61 228 -36
96 -163 142 -344 124z m170 -127 c20 -8 45 -56 45 -88 0 -41 -77 -116 -120
-116 -6 0 -10 38 -10 105 l0 105 34 0 c19 0 42 -3 51 -6z"/>
<path d="M1710 1053 c-24 -4 -25 -5 -22 -79 2 -48 -1 -80 -8 -90 -11 -12 -6
-14 30 -14 41 0 42 1 27 18 -19 21 -22 58 -6 67 6 4 29 -14 53 -39 l42 -46 87
0 c76 0 88 2 97 20 11 20 -3 30 -15 10 -3 -5 -22 -10 -41 -10 -32 0 -34 2 -34
36 0 34 1 35 29 29 20 -4 30 -2 34 9 5 12 -1 13 -29 9 -35 -6 -35 -6 -32 28 2
27 8 35 26 37 13 2 30 -2 39 -9 13 -11 15 -10 12 6 -3 11 -8 19 -12 18 -4 -2
-33 -3 -64 -3 -34 0 -53 -4 -45 -9 9 -5 12 -29 10 -82 -3 -65 -5 -74 -22 -74
-10 0 -32 17 -49 37 -27 34 -28 38 -13 53 43 44 -11 89 -94 78z"/>
<path d="M2030 1048 c0 -5 5 -8 10 -8 15 0 13 -143 -2 -159 -11 -11 -1 -12 56
-9 60 4 72 8 92 32 29 33 31 85 5 117 -16 20 -31 25 -90 29 -39 3 -71 2 -71
-2z"/>
<path d="M2255 1050 c-20 -4 -26 -8 -17 -13 19 -13 16 -126 -5 -149 -15 -17
-14 -18 36 -18 70 0 114 20 130 59 14 33 10 65 -12 95 -15 21 -85 35 -132 26z"/>
<path d="M963 758 c-6 -7 -14 -24 -18 -37 -17 -54 -67 -157 -82 -168 -14 -11
-11 -13 21 -13 31 0 36 3 27 13 -21 26 9 49 59 45 42 -3 45 -5 45 -30 -1 -20
4 -28 17 -29 10 -1 24 -2 31 -3 22 -4 28 6 14 22 -7 10 -31 58 -52 107 -45
105 -49 110 -62 93z"/>
<path d="M1513 755 c-65 -28 -85 -130 -35 -185 52 -59 152 -48 187 20 32 62 9
141 -50 166 -42 17 -61 17 -102 -1z m100 -46 c21 -23 27 -39 27 -74 0 -82 -66
-113 -120 -55 -33 35 -43 78 -28 120 19 57 72 60 121 9z"/>
<path d="M2133 758 c-5 -7 -27 -53 -47 -103 -21 -49 -44 -95 -52 -101 -20 -16
-17 -21 9 -18 12 1 29 3 37 3 13 1 13 2 0 11 -25 16 1 45 44 48 43 4 70 -13
63 -39 -5 -20 14 -27 51 -21 18 4 20 7 9 16 -8 6 -33 57 -57 114 -24 56 -44
102 -45 102 -2 0 -7 -6 -12 -12z"/>
<path d="M2508 748 c19 -19 16 -187 -3 -194 -33 -13 -11 -19 69 -18 92 1 106
6 106 35 0 19 -1 19 -29 -2 -17 -13 -39 -19 -57 -17 -27 3 -29 7 -32 47 l-3
44 35 -6 c28 -4 38 -2 46 12 8 17 5 18 -35 13 l-45 -5 0 41 c0 27 5 42 16 46
19 7 64 -3 64 -15 0 -17 18 -9 23 11 5 19 0 20 -81 20 -67 0 -83 -3 -74 -12z"/>
</g>
</svg>
