<?xml version="1.0" standalone="no"?>
<!DOCTYPE svg PUBLIC "-//W3C//DTD SVG 20010904//EN"
 "http://www.w3.org/TR/2001/REC-SVG-20010904/DTD/svg10.dtd">
<svg version="1.0" xmlns="http://www.w3.org/2000/svg"
 width="360.000000pt" height="253.000000pt" viewBox="0 0 360.000000 253.000000"
 preserveAspectRatio="xMidYMid meet">

<g transform="translate(0.000000,253.000000) scale(0.100000,-0.100000)"
fill="#000000" stroke="none">
<path d="M1284 1994 c-19 -15 -19 -15 1 -6 11 5 27 12 35 15 13 5 13 6 -1 6
-8 1 -24 -6 -35 -15z"/>
<path d="M1738 1993 c7 -3 16 -2 19 1 4 3 -2 6 -13 5 -11 0 -14 -3 -6 -6z"/>
<path d="M2422 1986 c7 -8 15 -12 17 -11 5 6 -10 25 -20 25 -5 0 -4 -6 3 -14z"/>
<path d="M1516 1899 c-91 -22 -146 -86 -146 -173 0 -96 30 -132 152 -182 93
-39 114 -59 104 -100 -11 -42 -48 -57 -124 -51 -37 4 -79 9 -94 13 -25 6 -27
3 -38 -37 -6 -24 -13 -51 -16 -60 -7 -24 74 -44 181 -44 74 0 98 4 138 24 96
47 135 165 85 261 -23 46 -48 62 -188 125 -40 18 -45 24 -48 57 -3 29 1 39 19
48 21 12 111 9 154 -4 16 -6 25 3 47 44 l26 51 -22 9 c-33 12 -135 30 -165 29
-14 -1 -44 -5 -65 -10z"/>
<path d="M1935 1901 l-60 -6 0 -310 0 -310 73 -3 72 -3 0 148 0 148 83 -145
82 -145 79 -3 c93 -3 93 -15 -4 143 l-69 114 27 20 c59 41 89 154 61 228 -36
96 -163 142 -344 124z m170 -127 c20 -8 45 -56 45 -88 0 -41 -77 -116 -120
-116 -6 0 -10 38 -10 105 l0 105 34 0 c19 0 42 -3 51 -6z"/>
<path d="M2430 1205 c0 -8 2 -15 4 -15 2 0 6 7 10 15 3 8 1 15 -4 15 -6 0 -10
-7 -10 -15z"/>
<path d="M884 1050 c-47 -19 -38 -64 21 -100 22 -13 35 -29 35 -42 0 -19 -4
-20 -45 -15 -48 7 -63 -8 -20 -19 57 -14 107 24 85 65 -5 11 -26 29 -45 41
-19 12 -35 28 -35 36 0 20 29 29 51 16 13 -8 20 -9 25 -1 14 23 -32 35 -72 19z"/>
<path d="M1010 1049 c-19 -3 -29 -7 -22 -8 8 -1 12 -21 12 -66 0 -78 19 -105
75 -105 55 0 75 27 75 104 0 43 4 66 13 69 6 2 0 6 -16 9 -15 3 -30 1 -33 -3
-3 -5 0 -9 5 -9 15 0 14 -123 -1 -138 -19 -19 -66 -15 -78 7 -14 27 -13 114 2
129 16 16 9 19 -32 11z"/>
<path d="M1324 1049 c-2 -4 0 -10 6 -14 5 -3 10 -29 10 -58 l0 -51 -63 62
c-34 34 -67 62 -72 62 -6 0 -9 -31 -7 -75 2 -49 -1 -81 -8 -91 -11 -12 -7 -14
21 -14 26 0 30 3 21 12 -7 7 -12 37 -12 67 l1 56 63 -70 c35 -38 66 -68 69
-65 3 3 7 46 8 95 4 82 2 91 -14 91 -10 0 -20 -4 -23 -7z"/>
<path d="M1394 1048 c-3 -4 0 -8 5 -8 15 0 14 -143 -1 -158 -9 -9 -3 -12 27
-12 30 0 36 3 27 12 -17 17 -16 155 1 161 6 2 -3 6 -21 9 -18 2 -35 1 -38 -4z"/>
<path d="M1505 1051 c-20 -4 -26 -9 -17 -14 19 -13 16 -126 -5 -149 -15 -17
-13 -18 55 -18 63 0 73 3 83 22 10 19 9 20 -7 13 -11 -4 -34 -10 -53 -13 l-33
-4 3 86 c2 47 4 85 4 85 0 -1 -13 -4 -30 -8z"/>
<path d="M1710 1053 c-24 -4 -25 -5 -22 -79 2 -48 -1 -80 -8 -90 -11 -12 -6
-14 30 -14 41 0 42 1 27 18 -19 21 -22 58 -6 67 6 4 29 -14 53 -39 l42 -46 87
0 c76 0 88 2 97 20 11 20 -3 30 -15 10 -3 -5 -22 -10 -41 -10 -32 0 -34 2 -34
36 0 34 1 35 29 29 20 -4 30 -2 34 9 5 12 -1 13 -29 9 -35 -6 -35 -6 -32 28 2
27 8 35 26 37 13 2 30 -2 39 -9 13 -11 15 -10 12 6 -3 11 -8 19 -12 18 -4 -2
-33 -3 -64 -3 -34 0 -53 -4 -45 -9 9 -5 12 -29 10 -82 -3 -65 -5 -74 -22 -74
-10 0 -32 17 -49 37 -27 34 -28 38 -13 53 43 44 -11 89 -94 78z m70 -32 c15
-29 2 -51 -31 -51 -30 0 -37 17 -23 54 8 22 41 20 54 -3z"/>
<path d="M2030 1048 c0 -5 5 -8 10 -8 15 0 13 -143 -2 -159 -11 -11 -1 -12 56
-9 60 4 72 8 92 32 29 33 31 85 5 117 -16 20 -31 25 -90 29 -39 3 -71 2 -71
-2z m129 -34 c35 -44 26 -109 -16 -125 -46 -17 -63 3 -63 75 0 34 3 66 7 69
15 16 53 5 72 -19z"/>
<path d="M2255 1050 c-20 -4 -26 -8 -17 -13 19 -13 16 -126 -5 -149 -15 -17
-14 -18 36 -18 70 0 114 20 130 59 14 33 10 65 -12 95 -15 21 -85 35 -132 26z
m92 -25 c45 -31 38 -116 -10 -134 -47 -18 -57 -5 -57 75 0 70 1 74 23 74 12 0
32 -7 44 -15z"/>
<path d="M2424 1049 c-2 -4 -1 -9 4 -11 4 -1 20 -19 35 -39 29 -38 36 -96 15
-117 -9 -9 -2 -12 33 -12 27 0 39 3 31 9 -29 18 -24 66 12 119 31 46 32 52 15
52 -12 0 -19 -7 -19 -18 0 -10 -7 -28 -16 -41 l-16 -23 -19 29 c-11 15 -17 33
-15 39 5 13 -52 25 -60 13z"/>
<path d="M2713 1050 c-23 -10 -37 -39 -28 -62 3 -8 -3 -23 -15 -33 -25 -23
-26 -47 -2 -68 23 -21 41 -21 69 -2 19 13 24 13 51 -2 18 -10 35 -14 48 -8 17
7 16 8 -9 16 -36 10 -53 24 -89 73 -37 52 -37 78 0 74 15 -2 29 2 32 7 7 13
-29 16 -57 5z m11 -119 c10 -11 15 -25 11 -30 -11 -18 -44 -12 -55 9 -21 39
13 55 44 21z"/>
<path d="M2782 973 c-6 -3 -10 -9 -6 -14 7 -12 41 -12 48 0 7 10 -23 20 -42
14z"/>
<path d="M963 758 c-6 -7 -14 -24 -18 -37 -17 -54 -67 -157 -82 -168 -14 -11
-11 -13 21 -13 31 0 36 3 27 13 -21 26 9 49 59 45 42 -3 45 -5 45 -30 -1 -20
4 -28 17 -29 10 -1 24 -2 31 -3 22 -4 28 6 14 22 -7 10 -31 58 -52 107 -45
105 -49 110 -62 93z m22 -94 c21 -51 20 -55 -20 -52 -19 1 -35 6 -35 10 0 14
28 78 34 78 3 0 13 -16 21 -36z"/>
<path d="M1154 758 c-12 -5 -27 -21 -33 -35 -15 -33 4 -63 58 -94 45 -25 57
-45 40 -65 -15 -19 -49 -18 -77 2 -20 14 -23 14 -28 -1 -9 -21 -3 -26 44 -32
46 -6 79 9 92 43 13 34 4 50 -49 86 -53 36 -61 46 -54 64 8 21 33 25 63 9 25
-13 29 -13 34 0 11 29 -48 44 -90 23z"/>
<path d="M1325 761 c-11 -5 -27 -20 -34 -34 -12 -23 -12 -29 2 -51 9 -13 34
-34 56 -47 45 -25 57 -45 40 -65 -15 -19 -49 -18 -77 2 -20 14 -23 14 -29 -1
-8 -22 13 -35 57 -35 38 1 61 14 77 45 15 29 0 59 -41 85 -68 41 -80 62 -46
80 15 8 27 7 50 -5 28 -15 30 -14 30 4 0 29 -41 39 -85 22z"/>
<path d="M1513 755 c-65 -28 -85 -130 -35 -185 52 -59 152 -48 187 20 32 62 9
141 -50 166 -42 17 -61 17 -102 -1z m100 -46 c21 -23 27 -39 27 -74 0 -82 -66
-113 -120 -55 -33 35 -43 78 -28 120 19 57 72 60 121 9z"/>
<path d="M1773 755 c-43 -18 -66 -57 -66 -111 0 -79 81 -134 153 -104 47 19
49 34 5 26 -23 -5 -49 -3 -67 5 -53 22 -75 100 -42 148 14 19 23 22 58 19 22
-3 49 -8 59 -12 13 -6 17 -3 17 12 0 32 -61 42 -117 17z"/>
<path d="M2133 758 c-5 -7 -27 -53 -47 -103 -21 -49 -44 -95 -52 -101 -20 -16
-17 -21 9 -18 12 1 29 3 37 3 13 1 13 2 0 11 -25 16 1 45 44 48 43 4 70 -13
63 -39 -5 -20 14 -27 51 -21 18 4 20 7 9 16 -8 6 -33 57 -57 114 -24 56 -44
102 -45 102 -2 0 -7 -6 -12 -12z m19 -97 c14 -35 14 -40 1 -45 -25 -10 -53 -7
-53 6 0 18 23 78 30 78 4 0 14 -18 22 -39z"/>
<path d="M2368 762 c-92 -3 -98 -4 -98 -24 0 -17 3 -18 14 -9 8 7 27 11 43 9
28 -3 28 -4 30 -78 2 -88 -3 -110 -24 -110 -28 0 -9 -9 28 -13 19 -2 44 0 54
4 16 6 16 8 4 8 -24 1 -27 17 -26 107 2 75 3 79 26 82 13 2 28 -1 34 -7 6 -6
15 -11 19 -11 10 0 11 38 1 42 -5 2 -52 2 -105 0z"/>
<path d="M2736 749 c-17 -14 -26 -30 -26 -50 0 -24 9 -35 55 -65 56 -38 64
-51 43 -72 -16 -16 -37 -15 -70 2 -23 12 -27 12 -32 0 -7 -18 24 -34 64 -34
39 0 83 41 78 73 -2 12 -25 38 -55 61 -29 21 -53 47 -53 56 0 23 33 31 64 15
20 -11 25 -11 30 1 6 15 -22 34 -52 34 -11 0 -31 -9 -46 -21z"/>
<path d="M1928 748 c15 -15 17 -198 1 -198 -5 0 -8 -4 -5 -8 2 -4 24 -6 47 -4
32 3 38 7 26 14 -26 14 -25 182 1 197 13 8 6 10 -32 11 -39 0 -47 -3 -38 -12z"/>
<path d="M2508 748 c19 -19 16 -187 -3 -194 -33 -13 -11 -19 69 -18 92 1 106
6 106 35 0 19 -1 19 -29 -2 -17 -13 -39 -19 -57 -17 -27 3 -29 7 -32 47 l-3
44 35 -6 c28 -4 38 -2 46 12 8 17 5 18 -35 13 l-45 -5 0 41 c0 27 5 42 16 46
19 7 64 -3 64 -15 0 -17 18 -9 23 11 5 19 0 20 -81 20 -67 0 -83 -3 -74 -12z"/>
<path d="M1222 300 c0 -19 2 -27 5 -17 2 9 2 25 0 35 -3 9 -5 1 -5 -18z"/>
<path d="M1262 300 c0 -19 2 -27 5 -17 2 9 2 25 0 35 -3 9 -5 1 -5 -18z"/>
<path d="M1448 323 c6 -2 18 -2 25 0 6 3 1 5 -13 5 -14 0 -19 -2 -12 -5z"/>
<path d="M1821 325 c0 -5 6 -21 14 -35 8 -14 14 -20 14 -15 0 6 -6 21 -14 35
-8 14 -14 21 -14 15z"/>
<path d="M2236 322 c7 -4 14 -18 17 -32 l4 -25 2 27 c0 14 7 29 14 31 6 3 -1
6 -18 6 -16 0 -25 -3 -19 -7z"/>
<path d="M2458 323 c6 -2 18 -2 25 0 6 3 1 5 -13 5 -14 0 -19 -2 -12 -5z"/>
<path d="M1315 310 c3 -5 8 -10 11 -10 2 0 4 5 4 10 0 6 -5 10 -11 10 -5 0 -7
-4 -4 -10z"/>
<path d="M1372 295 c0 -16 2 -22 5 -12 2 9 2 23 0 30 -3 6 -5 -1 -5 -18z"/>
<path d="M1397 306 c-3 -8 2 -20 11 -27 14 -11 15 -11 5 0 -6 7 -9 20 -6 27 3
8 3 14 0 14 -3 0 -7 -6 -10 -14z"/>
<path d="M1512 295 c0 -16 2 -22 5 -12 2 9 2 23 0 30 -3 6 -5 -1 -5 -18z"/>
<path d="M1572 295 c0 -16 2 -22 5 -12 2 9 2 23 0 30 -3 6 -5 -1 -5 -18z"/>
<path d="M1597 306 c-3 -8 2 -20 11 -27 14 -11 15 -11 5 0 -6 7 -9 20 -6 27 3
8 3 14 0 14 -3 0 -7 -6 -10 -14z"/>
<path d="M1742 300 c0 -14 2 -19 5 -12 2 6 2 18 0 25 -3 6 -5 1 -5 -13z"/>
<path d="M2052 300 c0 -14 2 -19 5 -12 2 6 2 18 0 25 -3 6 -5 1 -5 -13z"/>
<path d="M2180 295 c13 -14 26 -25 28 -25 3 0 -5 11 -18 25 -13 14 -26 25 -28
25 -3 0 5 -11 18 -25z"/>
<path d="M2327 300 c3 -11 9 -22 13 -25 5 -3 6 4 3 15 -3 11 -9 22 -13 25 -5
3 -6 -4 -3 -15z"/>
<path d="M2395 300 c10 -11 20 -20 23 -20 3 0 -3 9 -13 20 -10 11 -20 20 -23
20 -3 0 3 -9 13 -20z"/>
<path d="M1150 296 c0 -8 7 -17 16 -20 23 -9 24 -4 2 17 -14 13 -18 14 -18 3z"/>
<path d="M1870 303 c0 -15 18 -35 27 -32 5 2 1 12 -9 22 -10 9 -18 14 -18 10z"/>
<path d="M1944 290 c1 -8 10 -16 21 -17 15 -1 15 0 3 3 -9 3 -19 11 -21 17 -2
7 -3 5 -3 -3z"/>
<path d="M2520 306 c0 -2 7 -9 15 -16 9 -7 15 -8 15 -2 0 5 -7 12 -15 16 -8 3
-15 4 -15 2z"/>
</g>
</svg>
